# xmcd
#
# Track frame offsets:
# 150
# 19220
# 40255
# 56747
# 75777
# 93447
# 107515
# 129302
# 149465
# 167550
# 183120
# 199312
# 210455
# 230167
# 244927
# 260795
#
# Disc length: 3725 seconds
#
# Revision: 1
# Processed by: cddbd v1.5PL3 Copyright (c) Steve Scherf et al.
# Submitted via: CedeCatalogueitor 2.5 http://usuarios.lycos.es/kakasboy
#
DISCID=db0e8b10
DTITLE=Varios - Love At The  Movies
DYEAR=1997
DGENRE=
TTITLE0=Take My Breath Away
TTITLE1=I´ve Had The Time Of My Life
TTITLE2=Save The Best For Last
TTITLE3=The Streets Of Philadelphia
TTITLE4=Can You Feel The Love Tonight
TTITLE5=Evergreen
TTITLE6=The Wind Beneath My Wings
TTITLE7=I Will Always Love You
TTITLE8=Love Is All Around
TTITLE9=Do You Know Where You´re Going To
TTITLE10=Unchained Melody
TTITLE11=What A Wonderful World
TTITLE12=I Just Called To Say I Love You
TTITLE13=How Deep Is Your Love
TTITLE14=Love Is In The Air
TTITLE15=Everything I Do, I Do It For You
EXTD=
EXTT0=
EXTT1=
EXTT2=
EXTT3=
EXTT4=
EXTT5=
EXTT6=
EXTT7=
EXTT8=
EXTT9=
EXTT10=
EXTT11=
EXTT12=
EXTT13=
EXTT14=
EXTT15=
PLAYORDER=
